<?xml version="1.0" standalone="no"?>
<!DOCTYPE svg PUBLIC "-//W3C//DTD SVG 1.1//EN" "http://www.w3.org/Graphics/SVG/1.1/DTD/svg11.dtd" >
<!--
2013-9-30: Created.
-->
<svg>
<metadata>
Created by iconfont
</metadata>
<defs>

<font id="iconfont" horiz-adv-x="1024" >
  <font-face
    font-family="iconfont"
    font-weight="500"
    font-stretch="normal"
    units-per-em="1024"
    ascent="896"
    descent="-128"
  />
    <missing-glyph />
    
    <glyph glyph-name="home_ic_activity" unicode="&#58970;" d="M706.4 612H470.4c-15.2 0-28-12.8-28-28v-298.4c0-15.2 12.8-28 28-28s28 12.8 28 28V391.2h208c15.2 0 28 12.8 28 28V584c0 15.2-12.8 28-28 28z m-28-164.8H498.4V556h180v-108.8zM502.4 137.6c-123.2 0-248 37.6-248 109.6 0 40 39.2 73.6 111.2 92.8 13.6 4 28-4 32-18.4 4-13.6-4-28-18.4-32-50.4-13.6-72.8-33.6-72.8-43.2 0-20.8 74.4-57.6 196-57.6s196 37.6 196 57.6c0 11.2-28.8 33.6-89.6 47.2-13.6 3.2-22.4 16.8-20 31.2 3.2 13.6 16.8 22.4 31.2 20 82.4-18.4 130.4-53.6 130.4-97.6 0-72-124.8-109.6-248-109.6z"  horiz-adv-x="1024" />

    
    <glyph glyph-name="home_ic_custom" unicode="&#58971;" d="M464.8 148.8c-8.8 0-16 7.2-16 16v432c0 8.8 7.2 16 16 16s16-7.2 16-16v-432c-0.8-9.6-7.2-16-16-16zM641.6 140.8H358.4c-36.8 0-66.4 29.6-66.4 66.4V552.8c0 36.8 29.6 66.4 66.4 66.4h282.4c36.8 0 66.4-29.6 66.4-66.4v-345.6c0.8-36.8-28.8-66.4-65.6-66.4z m-283.2 424c-6.4 0-12-5.6-12-12v-345.6c0-6.4 5.6-12 12-12h282.4c6.4 0 12 5.6 12 12V552.8c0 6.4-5.6 12-12 12H358.4zM388 332.8c-4 0-8 1.6-11.2 4.8-6.4 6.4-6.4 16 0 22.4l33.6 33.6c-2.4 0.8-4 0.8-5.6 1.6-16.8 5.6-28.8 19.2-35.2 38.4-4 12-4.8 31.2 6.4 46.4 7.2 9.6 20.8 20.8 47.2 20.8 43.2 0 55.2-48.8 55.2-78.4v-4c-0.8-3.2-2.4-5.6-4-8L400 336c-4-1.6-8-3.2-12-3.2z m35.2 137.6c-10.4 0-18.4-2.4-21.6-8-4-5.6-4-13.6-2.4-18.4 1.6-5.6 6.4-16 16-19.2 8-2.4 18.4 0 31.2 6.4-1.6 13.6-6.4 39.2-23.2 39.2zM543.2 332.8c-4 0-8 1.6-11.2 4.8l-74.4 74.4c-2.4 2.4-4 4.8-4 8v1.6 2.4c0 28.8 12 78.4 55.2 78.4 26.4 0 40.8-11.2 47.2-20.8 11.2-15.2 11.2-34.4 6.4-46.4-6.4-19.2-19.2-32.8-35.2-38.4-1.6-0.8-4-1.6-5.6-1.6l33.6-33.6c6.4-6.4 6.4-16 0-22.4-4-4.8-8-6.4-12-6.4z m-58.4 98.4c12.8-7.2 23.2-9.6 31.2-6.4 9.6 3.2 14.4 13.6 16 19.2 1.6 4.8 1.6 12.8-2.4 18.4s-11.2 8-21.6 8c-16.8 0-21.6-25.6-23.2-39.2z"  horiz-adv-x="1024" />

    
    <glyph glyph-name="home_ic_card" unicode="&#58972;" d="M727.2 396H296.8c-17.6 0-32 14.4-32 32s14.4 32 32 32H728c17.6 0 32-14.4 32-32s-15.2-32-32.8-32zM704 172H320c-35.2 0-64 28.8-64 64V512c0 35.2 28.8 64 64 64h384c35.2 0 64-28.8 64-64v-276c0-35.2-28.8-64-64-64zM320 528c-8.8 0-16-7.2-16-16v-276c0-8.8 7.2-16 16-16h384c8.8 0 16 7.2 16 16V512c0 8.8-7.2 16-16 16H320zM620 280H528.8c-13.6 0-24 10.4-24 24s10.4 24 24 24h91.2c13.6 0 24-10.4 24-24s-11.2-24-24-24z"  horiz-adv-x="1024" />

    
    <glyph glyph-name="home_ic_news" unicode="&#58973;" d="M680 140H344c-32.8 0-60 27.2-60 60V568c0 32.8 27.2 60 60 60h336c32.8 0 60-27.2 60-60v-368c0-32.8-27.2-60-60-60z m-336 432c-2.4 0-4-1.6-4-4v-368c0-2.4 1.6-4 4-4h336c2.4 0 4 1.6 4 4V568c0 2.4-1.6 4-4 4H344zM444 382.4c-4 0-8 1.6-9.6 5.6l-38.4 57.6v-51.2c0-6.4-5.6-12-12-12s-12 5.6-12 12V485.6c0 5.6 3.2 9.6 8.8 11.2 4.8 1.6 10.4-0.8 13.6-4.8l38.4-57.6v51.2c0 6.4 5.6 12 12 12s12-5.6 12-12v-90.4c0-5.6-3.2-9.6-8.8-11.2-1.6-0.8-2.4-1.6-4-1.6zM535.2 428c6.4 0 12 5.6 12 12s-5.6 12-12 12h-33.6v21.6h33.6c6.4 0 12 5.6 12 12s-5.6 12-12 12h-45.6c-6.4 0-12-5.6-12-12v-90.4c0-6.4 5.6-12 12-12h45.6c6.4 0 12 5.6 12 12s-5.6 12-12 12h-33.6v21.6h33.6zM632.8 382.4c-4.8 0-9.6 3.2-11.2 7.2l-11.2 28-11.2-28c-2.4-4.8-7.2-8-12.8-7.2-5.6 0.8-9.6 4.8-10.4 9.6l-15.2 90.4c-0.8 6.4 3.2 12.8 9.6 13.6 6.4 0.8 12.8-3.2 13.6-9.6l8-48.8 6.4 16.8c1.6 4.8 6.4 7.2 11.2 7.2s9.6-3.2 11.2-7.2l6.4-16.8 8 48.8c0.8 6.4 7.2 11.2 13.6 9.6 6.4-0.8 11.2-7.2 9.6-13.6L643.2 392c-0.8-5.6-4.8-9.6-10.4-9.6 0.8 0 0.8 0 0 0zM632 264H392c-8.8 0-16 7.2-16 16v16c0 8.8 7.2 16 16 16h240c8.8 0 16-7.2 16-16v-16c0-8.8-7.2-16-16-16z"  horiz-adv-x="1024" />

    
    <glyph glyph-name="home_ic_shop" unicode="&#58974;" d="M670.4 116H353.6c-18.4 0-36.8 8-49.6 20.8-12.8 13.6-19.2 32-18.4 50.4l16.8 344c1.6 36 31.2 64.8 68 64.8h283.2c36 0 66.4-28.8 68-64.8l16.8-344c0.8-18.4-5.6-36.8-18.4-50.4-13.6-12.8-31.2-20.8-49.6-20.8z m-300 424c-6.4 0-12-4.8-12-11.2l-16.8-344c0-4.8 1.6-7.2 3.2-8.8 1.6-1.6 4-4 8.8-4h316c4.8 0 7.2 2.4 8.8 4 1.6 1.6 3.2 4 3.2 8.8l-16.8 344c0 6.4-5.6 11.2-12 11.2H370.4zM512 320.8c-59.2 0-108 48.8-108 108v14.4c0 15.2 12.8 28 28 28s28-12.8 28-28v-14.4c0-28.8 23.2-52 52-52s52 23.2 52 52v14.4c0 15.2 12.8 28 28 28s28-12.8 28-28v-14.4c0-60-48.8-108-108-108z"  horiz-adv-x="1024" />

    
    <glyph glyph-name="home_ic_notice" unicode="&#58975;" d="M395.2 152c-14.4 0-26.4 12-26.4 26.4V271.2c0 14.4 12 26.4 26.4 26.4s26.4-12 26.4-26.4v-92.8c0-14.4-12-26.4-26.4-26.4zM464.8 253.6H363.2c-35.2 0-64 28.8-64 64V448.8c0 35.2 28.8 64 64 64h101.6c14.4 0 26.4-12 26.4-26.4V280c0-14.4-12-26.4-26.4-26.4zM363.2 460c-6.4 0-11.2-4.8-11.2-11.2v-130.4c0-6.4 4.8-11.2 11.2-11.2h75.2V460h-75.2zM643.2 155.2c-11.2 0-22.4 3.2-32.8 8.8L451.2 257.6c-8 4.8-12.8 13.6-12.8 22.4V486.4c0 9.6 4.8 17.6 12.8 22.4l158.4 93.6c20 12 44.8 12 65.6 0.8 20.8-12 32.8-32.8 32.8-56.8v-325.6c0-24-12-44.8-32.8-56.8-10.4-6.4-20.8-8.8-32-8.8z m-152 140l145.6-85.6c5.6-3.2 10.4-1.6 12.8 0 2.4 1.6 6.4 4.8 6.4 10.4V546.4c0 6.4-4 9.6-6.4 10.4-2.4 1.6-7.2 3.2-12.8 0L491.2 471.2v-176z"  horiz-adv-x="1024" />

    
    <glyph glyph-name="home_ic_movie" unicode="&#58976;" d="M429.6 426.4m-44 0a44 44 0 1 1 88 0 44 44 0 1 1-88 0ZM554.4 426.4m-44 0a44 44 0 1 1 88 0 44 44 0 1 1-88 0ZM429.6 301.6m-44 0a44 44 0 1 1 88 0 44 44 0 1 1-88 0ZM554.4 301.6m-44 0a44 44 0 1 1 88 0 44 44 0 1 1-88 0ZM756 183.2c-32 21.6-64 20.8-100.8 16 42.4 42.4 68.8 100.8 68.8 164.8 0 128-104 232-232 232s-232-104-232-232c0-127.2 103.2-231.2 230.4-232 13.6-0.8 26.4-1.6 39.2-1.6 48 0 84.8 5.6 113.6 9.6 42.4 6.4 62.4 8.8 81.6-4 12.8-8.8 30.4-4.8 39.2 8s4.8 31.2-8 39.2z m-440 180.8c0 96.8 79.2 176 176 176s176-79.2 176-176-79.2-176-176-176-176 79.2-176 176z"  horiz-adv-x="1024" />

    
    <glyph glyph-name="home_ic_sport" unicode="&#58977;" d="M365.6 115.2c-30.4 0-60 11.2-83.2 34.4l-4 4c-22.4 22.4-34.4 52-34.4 83.2S256 297.6 278.4 320l39.2 39.2L488 188.8l-39.2-39.2c-23.2-23.2-53.6-34.4-83.2-34.4z m-44 73.6c24-24 62.4-24 87.2-0.8L317.6 279.2c-11.2-12-17.6-27.2-17.6-43.2 0-16.8 6.4-32 18.4-44l3.2-3.2zM448 160.8c-7.2 0-14.4 3.2-20 8L297.6 299.2c-8.8 8.8-10.4 22.4-4.8 32.8 138.4 259.2 144 266.4 145.6 268 0.8 0.8 5.6 6.4 7.2 8.8 16.8 16.8 40 25.6 64 25.6s46.4-9.6 64-26.4c16.8-16.8 26.4-36 29.6-55.2 19.2-2.4 38.4-12.8 55.2-29.6 15.2-15.2 24-33.6 26.4-53.6 20-2.4 38.4-11.2 53.6-26.4 35.2-35.2 36-92.8 0.8-127.2-1.6-1.6-8-7.2-8-7.2l-0.8-0.8c-2.4-1.6-8.8-7.2-268-145.6-5.6-0.8-9.6-1.6-14.4-1.6zM352 324l101.6-101.6C546.4 272.8 680 344.8 696 354.4l2.4 2.4c12.8 12.8 12.8 34.4-0.8 48-9.6 9.6-23.2 12.8-36 8.8-10.4-3.2-21.6-0.8-28.8 6.4-7.2 7.2-10.4 18.4-6.4 28.8 4 12.8 0.8 26.4-8.8 36-7.2 7.2-21.6 18.4-35.2 11.2-10.4-5.6-24-3.2-32 5.6s-10.4 21.6-5.6 32c7.2 14.4-4 28-11.2 35.2-6.4 6.4-15.2 10.4-24.8 10.4-8.8 0-17.6-3.2-23.2-9.6l-2.4-2.4c-9.6-16-81.6-149.6-131.2-243.2zM446.4 348c-5.6 0-11.2 1.6-16 5.6-12.8 8.8-15.2 26.4-6.4 39.2l48 67.2c8.8 12.8 26.4 15.2 39.2 6.4 12.8-8.8 15.2-26.4 6.4-39.2l-48-67.2c-5.6-8-14.4-12-23.2-12zM512 290.4c-8.8 0-16.8 4-22.4 11.2-9.6 12-7.2 29.6 5.6 39.2l68.8 52.8c12 9.6 29.6 7.2 39.2-5.6 9.6-12 7.2-29.6-5.6-39.2L528.8 296c-4.8-3.2-10.4-5.6-16.8-5.6z"  horiz-adv-x="1024" />

    
    <glyph glyph-name="home_ic_zz" unicode="&#58978;" d="M652 144h-288c-41.6 0-76 34.4-76 76v288c0 41.6 34.4 76 76 76h288c41.6 0 76-34.4 76-76v-288c0-41.6-34.4-76-76-76z m-288 384c-11.2 0-20-8.8-20-20v-288c0-11.2 8.8-20 20-20h288c11.2 0 20 8.8 20 20v288c0 11.2-8.8 20-20 20h-288zM557.6 266.4c-19.2 0-37.6 3.2-50.4 7.2-22.4 7.2-53.6 7.2-83.2-1.6-12-3.2-24 1.6-31.2 11.2-6.4 10.4-6.4 23.2 1.6 32.8 14.4 17.6 49.6 41.6 104.8 77.6l7.2 4.8c-2.4 0.8-4.8 0.8-6.4 1.6-30.4 7.2-53.6 7.2-71.2-2.4-12.8-5.6-30.4 0-36.8 13.6-7.2 13.6-1.6 30.4 12 37.6 30.4 15.2 66.4 17.6 109.6 6.4 32-8 60.8-7.2 76.8 1.6 12.8 7.2 28.8 3.2 36.8-8.8 8-12 5.6-28.8-6.4-37.6-24.8-19.2-58.4-41.6-91.2-62.4-8-5.6-16-10.4-24.8-16l19.2-4.8c21.6-7.2 57.6-5.6 70.4 4 12 9.6 29.6 7.2 39.2-5.6 9.6-12 7.2-29.6-5.6-39.2-18.4-15.2-44.8-20-70.4-20z"  horiz-adv-x="1024" />

    
    <glyph glyph-name="port_ic_custom" unicode="&#58979;" d="M748.8 64H278.4c-27.2-1.6-51.2 19.2-52.8 44.8V363.2c-1.6 14.4 8 27.2 22.4 28.8h3.2c14.4 0 25.6-12.8 25.6-27.2V112h473.6V363.2c-1.6 14.4 8 27.2 22.4 28.8h1.6c16 0 27.2-12.8 27.2-28.8V112c0-27.2-22.4-49.6-49.6-48h-3.2zM859.2 515.2c0 3.2 0 3.2-1.6 4.8l-64 139.2c-8 27.2-32 44.8-60.8 46.4H291.2c-27.2 0-51.2-19.2-59.2-44.8l-67.2-140.8v-3.2c-3.2-12.8-6.4-25.6-6.4-40 0-44.8 22.4-86.4 60.8-110.4l4.8-3.2c16-8 33.6-12.8 52.8-12.8 43.2 3.2 83.2 22.4 112 52.8l4.8 6.4 4.8-6.4c30.4-30.4 70.4-48 113.6-49.6 41.6 0 83.2 17.6 110.4 49.6l4.8 6.4 4.8-6.4c30.4-30.4 70.4-49.6 113.6-52.8 19.2 0 40 4.8 56 14.4 38.4 24 62.4 65.6 60.8 110.4 3.2 12.8 0 27.2-3.2 40z m-72-108.8c-12.8-6.4-25.6-9.6-40-9.6-30.4 0-80 22.4-94.4 49.6l-4.8 9.6c-4.8 4.8-11.2 9.6-17.6 9.6-6.4 0-12.8-3.2-17.6-9.6-1.6-3.2-3.2-4.8-4.8-8-22.4-28.8-56-48-92.8-51.2-28.8 0-80 25.6-96 51.2-1.6 3.2-3.2 6.4-6.4 8-3.2 6.4-9.6 9.6-16 9.6s-12.8-3.2-16-8c-3.2-3.2-4.8-6.4-6.4-9.6-20.8-28.8-52.8-46.4-88-48-12.8 0-27.2 3.2-38.4 9.6h-1.6c-27.2 12.8-41.6 41.6-40 70.4 0 9.6 1.6 20.8 4.8 28.8v1.6l60.8 124.8c1.6 11.2 11.2 19.2 22.4 19.2h436.8c11.2 0 20.8-8 20.8-19.2l64-126.4v-1.6c3.2-9.6 4.8-19.2 4.8-28.8 0-35.2-6.4-56-33.6-72zM600 203.2h-176c-12.8 0-24 11.2-24 24s11.2 24 24 24h174.4c12.8 0 24-11.2 24-24s-9.6-24-22.4-24z"  horiz-adv-x="1024" />

    
    <glyph glyph-name="home_ic_walk" unicode="&#58980;" d="M530.4 559.2c0-23.2 12-44 32-56 20-11.2 44.8-11.2 64.8 0s32 32.8 32 56c0 23.2-12 44-32 56-20 11.2-44.8 11.2-64.8 0-19.2-11.2-32-32.8-32-56M735.2 509.6c-21.6 16-40 0-40 0-51.2-64-91.2-44.8-100.8-42.4-9.6 2.4-63.2 32-74.4 36.8-11.2 5.6-26.4 16-76.8 12.8-56.8-4.8-106.4-56.8-111.2-78.4-5.6-21.6 32.8-43.2 48.8-26.4 55.2 72 104.8 43.2 104.8 43.2s-33.6-60.8-69.6-128.8c-59.2-73.6-100-43.2-121.6-33.6-22.4 9.6-41.6-16-41.6-32.8s36-41.6 94.4-41.6 104.8 48.8 110.4 55.2c16.8-1.6 89.6-51.2 99.2-59.2 9.6-8 45.6-89.6 48.8-94.4 3.2-4.8 18.4-16.8 36.8-8s16 32 16 32-32 83.2-52.8 104c-20.8 20.8-84.8 61.6-84.8 61.6s45.6 83.2 56.8 102.4C688.8 383.2 740.8 472 740.8 472s16 21.6-5.6 37.6z m0 0"  horiz-adv-x="1024" />

    
    <glyph glyph-name="port_ic_statistics" unicode="&#58981;" d="M835.2 377.6H526.4c-16 0-28.8 12.8-28.8 28.8V707.2c0 16 12.8 28.8 28.8 28.8 89.6 0 174.4-35.2 238.4-96 62.4-60.8 97.6-145.6 99.2-233.6 0-17.6-12.8-30.4-28.8-28.8z m-278.4 56h248c-6.4 62.4-35.2 120-80 164.8-44.8 44.8-104 72-168 78.4v-243.2zM497.6 32c-182.4-4.8-332.8 140.8-337.6 321.6-3.2 147.2 91.2 278.4 232 321.6 16 4.8 32-3.2 36.8-17.6 4.8-14.4-3.2-30.4-17.6-36.8-144-44.8-224-196.8-179.2-340.8 36.8-116.8 145.6-195.2 267.2-192 123.2 0 232 80 267.2 198.4 4.8 16 20.8 24 36.8 19.2 16-4.8 24-19.2 20.8-35.2C777.6 129.6 646.4 32 497.6 32z"  horiz-adv-x="1024" />

    
    <glyph glyph-name="port_ic_data" unicode="&#58982;" d="M240 200c-27.2 0-49.6 22.4-49.6 49.6v400h-17.6c-14.4 0-27.2 12.8-27.2 27.2s11.2 27.2 25.6 27.2h681.6c14.4 0 27.2-12.8 27.2-27.2 0-14.4-12.8-27.2-27.2-27.2h-17.6v-401.6c0-27.2-22.4-49.6-49.6-49.6L240 200z m3.2 449.6V272c0-9.6 8-17.6 17.6-17.6h500.8c4.8 0 9.6 1.6 12.8 4.8 3.2 3.2 4.8 8 4.8 12.8V649.6H243.2zM428.8 200l-52.8-96c-3.2-4.8-4.8-12.8-3.2-19.2 1.6-8 8-12.8 14.4-16 4.8-1.6 9.6-3.2 14.4-3.2 9.6 0 19.2 4.8 25.6 12.8l62.4 115.2c1.6 1.6 3.2 4.8 3.2 8h38.4c0-3.2 1.6-4.8 3.2-6.4l64-115.2c9.6-12.8 25.6-16 40-9.6 6.4 3.2 12.8 9.6 14.4 16 1.6 6.4 0 12.8-3.2 19.2l-52.8 96-168-1.6zM307.2 334.4c-4.8 0-9.6 1.6-12.8 3.2-12.8 8-17.6 24-9.6 36.8l115.2 136c1.6 1.6 3.2 3.2 3.2 4.8 1.6 1.6 3.2 3.2 4.8 3.2l1.6 1.6h1.6c1.6 1.6 4.8 1.6 6.4 1.6 9.6 1.6 19.2-1.6 27.2-8l3.2-1.6 108.8-76.8 137.6 124.8c8 12.8 25.6 16 38.4 11.2 8-4.8 12.8-11.2 14.4-19.2 1.6-8-1.6-14.4-8-19.2l-160-144c-12.8-12.8-25.6-14.4-35.2-8-4.8 3.2-9.6 6.4-14.4 11.2L428.8 464l-97.6-115.2c-6.4-9.6-14.4-14.4-24-14.4z m107.2 179.2z"  horiz-adv-x="1024" />

    
    <glyph glyph-name="port_ic_setting" unicode="&#58983;" d="M827.2 513.6c8-22.4 3.2-49.6-12.8-67.2-32-35.2-32-89.6 0-124.8 16-17.6 20.8-44.8 12.8-67.2-11.2-30.4-27.2-57.6-46.4-81.6-14.4-19.2-40-27.2-62.4-22.4-22.4 4.8-46.4 1.6-65.6-9.6-19.2-11.2-35.2-30.4-41.6-52.8-8-24-27.2-40-51.2-44.8-14.4-1.6-32-3.2-46.4-3.2-16 0-32 1.6-46.4 3.2-24 3.2-44.8 20.8-51.2 44.8-14.4 46.4-60.8 72-107.2 62.4-24-4.8-48 3.2-62.4 22.4-19.2 25.6-35.2 52.8-46.4 81.6-8 22.4-3.2 49.6 12.8 67.2 32 35.2 32 89.6 0 124.8-16 17.6-20.8 44.8-12.8 67.2 11.2 28.8 27.2 56 46.4 81.6 16 19.2 40 28.8 64 22.4 22.4-4.8 46.4-1.6 65.6 9.6 19.2 11.2 35.2 30.4 41.6 52.8 8 24 27.2 40 51.2 44.8 30.4 3.2 62.4 3.2 92.8 0 24-3.2 44.8-20.8 51.2-44.8 6.4-22.4 20.8-40 41.6-52.8 19.2-11.2 43.2-14.4 65.6-9.6 24 4.8 48-3.2 62.4-22.4 17.6-25.6 33.6-52.8 44.8-81.6z m-46.4-19.2c-9.6 24-24 48-40 68.8-3.2 3.2-8 4.8-12.8 3.2-33.6-8-70.4-3.2-100.8 14.4-32 17.6-54.4 46.4-64 81.6-1.6 4.8-4.8 8-9.6 9.6-25.6 3.2-52.8 3.2-80 0-4.8 0-9.6-4.8-9.6-9.6-9.6-35.2-33.6-64-64-81.6-30.4-17.6-67.2-22.4-102.4-14.4-4.8 1.6-9.6 0-12.8-3.2-16-20.8-30.4-44.8-40-68.8-1.6-4.8-1.6-9.6 3.2-14.4 49.6-54.4 49.6-137.6 0-193.6-3.2-3.2-4.8-8-3.2-12.8 9.6-24 22.4-48 38.4-68.8 3.2-3.2 8-4.8 12.8-4.8 72 16 144-25.6 166.4-96 1.6-4.8 4.8-8 9.6-9.6 12.8-1.6 27.2-3.2 38.4-3.2 14.4 0 27.2 1.6 40 3.2 4.8 0 8 4.8 9.6 9.6 9.6 35.2 33.6 64 64 81.6 30.4 17.6 67.2 22.4 102.4 14.4 4.8-1.6 9.6 0 12.8 3.2 16 20.8 30.4 44.8 40 68.8 1.6 4.8 0 9.6-3.2 14.4-49.6 54.4-49.6 137.6 0 193.6 6.4 3.2 6.4 9.6 4.8 14.4zM507.2 256c-70.4 0-128 56-128 126.4s56 128 126.4 128 128-56 128-126.4v-1.6c0-68.8-56-126.4-126.4-126.4z m0 51.2c41.6 0 76.8 33.6 76.8 75.2s-33.6 76.8-75.2 76.8S432 425.6 432 384c-1.6-43.2 33.6-76.8 75.2-76.8z"  horiz-adv-x="1024" />

    
    <glyph glyph-name="home_ic_vote" unicode="&#58984;" d="M652.8 120H355.2c-34.4 0-63.2 28-63.2 61.6V550.4c0 33.6 28 61.6 63.2 61.6h116c15.2 0 28-12.8 28-28s-12.8-28-28-28H355.2c-4 0-7.2-2.4-7.2-5.6v-368.8c0-3.2 3.2-5.6 7.2-5.6h297.6c4 0 7.2 2.4 7.2 5.6V432.8c0 15.2 12.8 28 28 28s28-12.8 28-28v-251.2c0-33.6-28-61.6-63.2-61.6zM579.2 228.8H428.8c-15.2 0-28 12.8-28 28s12.8 28 28 28h151.2c15.2 0 28-12.8 28-28s-12.8-28-28.8-28zM428.8 346.4c-7.2 0-13.6 2.4-19.2 8-11.2 10.4-11.2 28.8-0.8 39.2l200.8 209.6c10.4 11.2 28.8 11.2 39.2 0.8 11.2-10.4 11.2-28.8 0.8-39.2L448.8 355.2c-4.8-5.6-12.8-8.8-20-8.8z"  horiz-adv-x="1024" />

    
    <glyph glyph-name="home_ic_vip" unicode="&#58985;" d="M673.6 188H356.8c-33.6 0-61.6 24-66.4 56.8L259.2 448c-3.2 19.2 4.8 37.6 20 48.8 15.2 11.2 36 13.6 52.8 4.8l71.2-34.4 67.2 117.6c8.8 16 26.4 26.4 44.8 26.4s36-9.6 44.8-26.4l67.2-117.6 71.2 34.4c17.6 8 37.6 6.4 52.8-4.8s23.2-30.4 20-48.8l-31.2-203.2c-4.8-32.8-32.8-56.8-66.4-56.8zM316 448l29.6-194.4c0.8-5.6 5.6-9.6 11.2-9.6h317.6c5.6 0 10.4 4 11.2 9.6L714.4 448l-87.2-41.6c-13.6-6.4-28.8-1.6-36 11.2l-76 133.6-76-133.6c-7.2-12.8-23.2-17.6-36-11.2L316 448zM432 272c-6.4 0-12 4-14.4 9.6l-32 72c-3.2 8 0 17.6 8 20.8 8 4 17.6 0 20.8-8l17.6-39.2 17.6 39.2c3.2 8 12.8 12 20.8 8 8-3.2 12-12.8 8-20.8l-32-72c-2.4-5.6-8-9.6-14.4-9.6zM512 272c-8.8 0-16 7.2-16 16v72c0 8.8 7.2 16 16 16s16-7.2 16-16v-72c0-8.8-7.2-16-16-16zM568 272c-8.8 0-16 7.2-16 16v72c0 8.8 7.2 16 16 16h32c28 0 48-16.8 48-40 0-40-40-40-64-40v-8c0-8.8-7.2-16-16-16z m16 72v-16c30.4 0 32 2.4 32 8s-9.6 8-16 8h-16z"  horiz-adv-x="1024" />

    
    <glyph glyph-name="port_ic_info" unicode="&#58986;" d="M584 64h278.4c12.8 0 24 11.2 24 24s-11.2 24-24 24h-22.4V464c1.6 51.2-40 94.4-91.2 96H584v-48h160c27.2 0 48-36.8 48-64v-336h-208v-48z m78.4 344h49.6c12.8 0 24-11.2 24-24s-11.2-24-24-24h-49.6c-12.8 0-24 11.2-24 24s9.6 24 24 24z m0-147.2h49.6c12.8 0 24-11.2 24-24s-11.2-24-24-24h-49.6c-12.8 0-25.6 9.6-25.6 24 0 12.8 9.6 25.6 25.6 24-1.6 0 0 0 0 0zM584 64H161.6c-12.8 0-24 11.2-24 24s11.2 24 24 24h25.6V604.8c0 54.4 44.8 99.2 100.8 99.2h200c54.4 0 97.6-41.6 99.2-96l-3.2-544z m-46.4 492.8v49.6c0 27.2-22.4 49.6-49.6 49.6H286.4c-27.2 0-49.6-22.4-49.6-49.6v-492.8h300.8V556.8z m-225.6 0h150.4c12.8 0 24-11.2 24-24s-11.2-24-24-24h-150.4c-12.8 0-24 11.2-24 24-1.6 12.8 9.6 24 24 24z m0-148.8h150.4c12.8 0 24-11.2 24-24s-11.2-24-24-24h-150.4c-12.8 0-24 11.2-24 24-1.6 12.8 9.6 24 24 24z m150.4-147.2c12.8 0 24-11.2 24-24s-11.2-24-24-24h-150.4c-12.8 0-25.6 9.6-25.6 24 0 12.8 9.6 25.6 24 25.6 3.2 0 152-1.6 152-1.6z"  horiz-adv-x="1024" />

    
    <glyph glyph-name="nav_ic_search" unicode="&#58987;" d="M457.6 6.4c-112 0-220.8 44.8-300.8 124.8-166.4 169.6-166.4 438.4 0 608C320 905.6 588.8 905.6 755.2 742.4l3.2-3.2c166.4-169.6 166.4-438.4 0-608-80-80-188.8-124.8-300.8-124.8z m0 800c-99.2 0-192-38.4-262.4-108.8-144-147.2-144-380.8 0-524.8 144-144 374.4-144 518.4-3.2l3.2 3.2c144 147.2 144 380.8 0 524.8-67.2 70.4-160 108.8-259.2 108.8zM963.2-96c-6.4 0-16 3.2-19.2 9.6l-201.6 201.6c-9.6 12.8-9.6 28.8 0 41.6 9.6 9.6 28.8 12.8 38.4 0l201.6-201.6c9.6-12.8 9.6-28.8 0-41.6-3.2-6.4-12.8-9.6-19.2-9.6z"  horiz-adv-x="1024" />

    
    <glyph glyph-name="nav_ic_add" unicode="&#58988;" d="M512 314.181818c-148.945455 0-267.636364 118.690909-267.636364 267.636364S363.054545 849.454545 512 849.454545s267.636364-118.690909 267.636364-267.636363C779.636364 435.2 658.618182 314.181818 512 314.181818z m0 465.454546c-109.381818 0-197.818182-88.436364-197.818182-197.818182S402.618182 384 512 384s197.818182 88.436364 197.818182 197.818182S621.381818 779.636364 512 779.636364zM116.363636-81.454545c-18.618182 0-34.909091 16.290909-34.909091 34.90909C81.454545 190.836364 274.618182 384 512 384c69.818182 0 137.309091-16.290909 197.818182-48.872727 16.290909-9.309091 23.272727-30.254545 16.290909-46.545455-9.309091-16.290909-30.254545-23.272727-46.545455-16.290909-53.527273 27.927273-109.381818 41.890909-167.563636 41.890909-200.145455 0-360.727273-160.581818-360.727273-360.727273 0-18.618182-16.290909-34.909091-34.909091-34.90909z m791.272728 139.636363H674.909091c-18.618182 0-34.909091 16.290909-34.909091 34.909091S656.290909 128 674.909091 128h232.727273c18.618182 0 34.909091-16.290909 34.909091-34.909091S926.254545 58.181818 907.636364 58.181818z m-116.363637-116.363636c-18.618182 0-34.909091 16.290909-34.909091 34.909091v232.727272c0 18.618182 16.290909 34.909091 34.909091 34.909091s34.909091-16.290909 34.909091-34.909091v-232.727272c0-18.618182-16.290909-34.909091-34.909091-34.909091z"  horiz-adv-x="1024" />

    
    <glyph glyph-name="nav_ic_contact" unicode="&#58989;" d="M826.181818-104.727273h-512C218.763636-104.727273 139.636364-25.6 139.636364 69.818182c0 18.618182 16.290909 34.909091 34.909091 34.909091s34.909091-16.290909 34.90909-34.909091C209.454545 11.636364 256-34.909091 314.181818-34.909091h512c58.181818 0 104.727273 46.545455 104.727273 104.727273v628.363636C930.909091 756.363636 884.363636 802.909091 826.181818 802.909091h-512C256 802.909091 209.454545 756.363636 209.454545 698.181818c0-18.618182-16.290909-34.909091-34.90909-34.909091S139.636364 679.563636 139.636364 698.181818C139.636364 793.6 218.763636 872.727273 314.181818 872.727273h512C921.6 872.727273 1000.727273 793.6 1000.727273 698.181818v-628.363636c0-95.418182-79.127273-174.545455-174.545455-174.545455z m-628.363636 605.090909h-139.636364c-18.618182 0-34.909091 16.290909-34.909091 34.909091S39.563636 570.181818 58.181818 570.181818h139.636364c18.618182 0 34.909091-16.290909 34.909091-34.909091S216.436364 500.363636 197.818182 500.363636z m0-325.818181h-139.636364c-18.618182 0-34.909091 16.290909-34.909091 34.90909S39.563636 244.363636 58.181818 244.363636h139.636364c18.618182 0 34.909091-16.290909 34.909091-34.909091S216.436364 174.545455 197.818182 174.545455z m0 162.90909h-116.363637c-18.618182 0-34.909091 16.290909-34.90909 34.909091S62.836364 407.272727 81.454545 407.272727h116.363637c18.618182 0 34.909091-16.290909 34.909091-34.909091S216.436364 337.454545 197.818182 337.454545z m605.090909-216.436363c-18.618182 0-34.909091 16.290909-34.909091 34.909091 0 100.072727-81.454545 181.527273-181.527273 181.527272s-181.527273-81.454545-181.527272-181.527272c0-18.618182-16.290909-34.909091-34.909091-34.909091s-34.909091 16.290909-34.909091 34.909091c0 139.636364 111.709091 251.345455 251.345454 251.345454S837.818182 295.563636 837.818182 155.927273c0-18.618182-16.290909-34.909091-34.909091-34.909091zM586.472727 337.454545c-90.763636 0-162.909091 72.145455-162.909091 162.909091s72.145455 162.909091 162.909091 162.909091 162.909091-72.145455 162.909091-162.909091c0-88.436364-74.472727-162.909091-162.909091-162.909091z m0 256c-51.2 0-93.090909-41.890909-93.090909-93.090909s41.890909-93.090909 93.090909-93.090909 93.090909 41.890909 93.090909 93.090909-41.890909 93.090909-93.090909 93.090909z"  horiz-adv-x="1024" />

    
    <glyph glyph-name="tab_ic_group_select" unicode="&#58990;" d="M512 749.714286C310.857143 749.714286 146.285714 585.142857 146.285714 384s164.571429-365.714286 365.714286-365.714286 365.714286 164.571429 365.714286 365.714286S713.142857 749.714286 512 749.714286z m0-530.285715c-91.428571 0-164.571429 73.142857-164.571429 164.571429s73.142857 164.571429 164.571429 164.571429 164.571429-73.142857 164.571429-164.571429-73.142857-164.571429-164.571429-164.571429z"  horiz-adv-x="1024" />

    
    <glyph glyph-name="tab_ic_contact_default" unicode="&#58991;" d="M758.857143 9.142857h-402.285714c-71.314286 0-128 56.685714-128 128 0 10.971429 7.314286 18.285714 18.285714 18.285714s18.285714-7.314286 18.285714-18.285714c0-51.2 40.228571-91.428571 91.428572-91.428571h402.285714c51.2 0 91.428571 40.228571 91.428571 91.428571v493.714286c0 51.2-40.228571 91.428571-91.428571 91.428571h-402.285714c-51.2 0-91.428571-40.228571-91.428572-91.428571 0-10.971429-7.314286-18.285714-18.285714-18.285714s-18.285714 7.314286-18.285714 18.285714c0 71.314286 56.685714 128 128 128h402.285714c71.314286 0 128-56.685714 128-128v-493.714286c0-71.314286-56.685714-128-128-128z m-493.714286 475.428572h-109.714286c-10.971429 0-18.285714 7.314286-18.285714 18.285714s7.314286 18.285714 18.285714 18.285714h109.714286c10.971429 0 18.285714-7.314286 18.285714-18.285714s-7.314286-18.285714-18.285714-18.285714z m0-256h-109.714286c-10.971429 0-18.285714 7.314286-18.285714 18.285714s7.314286 18.285714 18.285714 18.285714h109.714286c10.971429 0 18.285714-7.314286 18.285714-18.285714s-7.314286-18.285714-18.285714-18.285714z m0 128h-91.428571c-10.971429 0-18.285714 7.314286-18.285715 18.285714s7.314286 18.285714 18.285715 18.285714h91.428571c10.971429 0 18.285714-7.314286 18.285714-18.285714s-7.314286-18.285714-18.285714-18.285714z m475.428572-170.057143c-10.971429 0-18.285714 7.314286-18.285715 18.285714 0 84.114286-67.657143 151.771429-151.771428 151.771429s-151.771429-67.657143-151.771429-151.771429c0-10.971429-7.314286-18.285714-18.285714-18.285714s-18.285714 7.314286-18.285714 18.285714c0 104.228571 84.114286 188.342857 188.342857 188.342857s188.342857-84.114286 188.342857-188.342857c0-9.142857-7.314286-18.285714-18.285714-18.285714z m-170.057143 170.057143c-65.828571 0-118.857143 53.028571-118.857143 118.857142s53.028571 118.857143 118.857143 118.857143 118.857143-53.028571 118.857143-118.857143-53.028571-118.857143-118.857143-118.857142z m0 201.142857c-45.714286 0-82.285714-36.571429-82.285715-82.285715s36.571429-82.285714 82.285715-82.285714 82.285714 36.571429 82.285714 82.285714-38.4 82.285714-82.285714 82.285715z"  horiz-adv-x="1024" />

    
    <glyph glyph-name="tab_ic_group_default" unicode="&#58992;" d="M512 18.285714C310.857143 18.285714 146.285714 182.857143 146.285714 384S310.857143 749.714286 512 749.714286s365.714286-164.571429 365.714286-365.714286-164.571429-365.714286-365.714286-365.714286z m0 694.857143c-181.028571 0-329.142857-148.114286-329.142857-329.142857s148.114286-329.142857 329.142857-329.142857 329.142857 148.114286 329.142857 329.142857-148.114286 329.142857-329.142857 329.142857z m0-493.714286c-91.428571 0-164.571429 73.142857-164.571429 164.571429s73.142857 164.571429 164.571429 164.571429 164.571429-73.142857 164.571429-164.571429-73.142857-164.571429-164.571429-164.571429z m0 292.571429c-71.314286 0-128-56.685714-128-128s56.685714-128 128-128 128 56.685714 128 128-56.685714 128-128 128z"  horiz-adv-x="1024" />

    
    <glyph glyph-name="tab_ic_port_default" unicode="&#58993;" d="M822.857143 27.428571c-10.971429 0-18.285714 7.314286-18.285714 18.285715 0 160.914286-131.657143 292.571429-292.571429 292.571428s-292.571429-131.657143-292.571429-292.571428c0-10.971429-7.314286-18.285714-18.285714-18.285715s-18.285714 7.314286-18.285714 18.285715c0 181.028571 148.114286 329.142857 329.142857 329.142857s329.142857-148.114286 329.142857-329.142857c0-10.971429-7.314286-18.285714-18.285714-18.285715z m-310.857143 310.857143c-111.542857 0-201.142857 89.6-201.142857 201.142857s89.6 201.142857 201.142857 201.142858 201.142857-89.6 201.142857-201.142858-89.6-201.142857-201.142857-201.142857z m0 365.714286c-91.428571 0-164.571429-73.142857-164.571429-164.571429s73.142857-164.571429 164.571429-164.571428 164.571429 73.142857 164.571429 164.571428-73.142857 164.571429-164.571429 164.571429z"  horiz-adv-x="1024" />

    
    <glyph glyph-name="tab_ic_port_select" unicode="&#58994;" d="M822.857143 27.428571H201.142857c-10.971429 0-18.285714 7.314286-18.285714 18.285715 0 181.028571 148.114286 329.142857 329.142857 329.142857s329.142857-148.114286 329.142857-329.142857c0-10.971429-7.314286-18.285714-18.285714-18.285715z m-310.857143 310.857143c-111.542857 0-201.142857 89.6-201.142857 201.142857s89.6 201.142857 201.142857 201.142858 201.142857-89.6 201.142857-201.142858-89.6-201.142857-201.142857-201.142857z"  horiz-adv-x="1024" />

    
    <glyph glyph-name="tab_ic_home_default" unicode="&#58995;" d="M804.571429 31.085714H219.428571c-31.085714 0-54.857143 23.771429-54.857142 54.857143V424.228571c0 25.6 10.971429 51.2 31.085714 69.485715l256 221.257143c34.742857 29.257143 85.942857 29.257143 120.685714 0l256-221.257143c20.114286-16.457143 31.085714-42.057143 31.085714-69.485715v-338.285714c0-31.085714-23.771429-54.857143-54.857142-54.857143zM475.428571 687.542857L219.428571 464.457143c-12.8-10.971429-18.285714-25.6-18.285714-42.057143v-338.285714c0-9.142857 7.314286-18.285714 18.285714-18.285715h585.142858c9.142857 0 18.285714 7.314286 18.285714 18.285715V424.228571c0 16.457143-7.314286 31.085714-18.285714 42.057143L548.571429 687.542857a60.342857 60.342857 0 0 1-73.142858 0z m146.285715-656.457143H402.285714c-10.971429 0-18.285714 7.314286-18.285714 18.285715v237.714285c0 31.085714 23.771429 54.857143 54.857143 54.857143h146.285714c31.085714 0 54.857143-23.771429 54.857143-54.857143v-237.714285c0-10.971429-7.314286-18.285714-18.285714-18.285715z m-201.142857 36.571429h182.857142v219.428571c0 10.971429-7.314286 18.285714-18.285714 18.285715h-146.285714c-10.971429 0-18.285714-7.314286-18.285714-18.285715v-219.428571z"  horiz-adv-x="1024" />

    
    <glyph glyph-name="tab_ic_home_select" unicode="&#58996;" d="M585.142857 305.371429h-146.285714c-10.971429 0-18.285714-7.314286-18.285714-18.285715v-256h182.857142v256c0 9.142857-7.314286 18.285714-18.285714 18.285715zM828.342857 491.885714L572.342857 713.142857c-34.742857 29.257143-85.942857 29.257143-120.685714 0l-256-221.257143C175.542857 475.428571 164.571429 449.828571 164.571429 424.228571v-338.285714c0-31.085714 23.771429-54.857143 54.857142-54.857143h164.571429v256c0 31.085714 23.771429 54.857143 54.857143 54.857143h146.285714c31.085714 0 54.857143-23.771429 54.857143-54.857143v-256h164.571429c31.085714 0 54.857143 23.771429 54.857142 54.857143V424.228571c0 25.6-10.971429 51.2-31.085714 67.657143z"  horiz-adv-x="1024" />

    
    <glyph glyph-name="tab_ic_contact_select" unicode="&#58997;" d="M758.857143 758.857143h-402.285714c-71.314286 0-128-56.685714-128-128v-54.857143h18.285714c40.228571 0 73.142857-32.914286 73.142857-73.142857v-256c0-40.228571-32.914286-73.142857-73.142857-73.142857h-18.285714v-36.571429c0-71.314286 56.685714-128 128-128h402.285714c71.314286 0 128 56.685714 128 128v493.714286c0 71.314286-56.685714 128-128 128z m-18.285714-572.342857c-10.971429 0-18.285714 7.314286-18.285715 18.285714 0 84.114286-67.657143 151.771429-151.771428 151.771429-84.114286 0-151.771429-67.657143-151.771429-151.771429 0-10.971429-7.314286-18.285714-18.285714-18.285714s-18.285714 7.314286-18.285714 18.285714c0 78.628571 49.371429 148.114286 118.857142 175.542857-29.257143 21.942857-49.371429 56.685714-49.371428 95.085714 0 65.828571 53.028571 118.857143 118.857143 118.857143s118.857143-53.028571 118.857143-118.857143c0-38.4-18.285714-73.142857-49.371429-95.085714 69.485714-27.428571 118.857143-95.085714 118.857143-175.542857 0-9.142857-7.314286-18.285714-18.285714-18.285714zM570.514286 393.142857c45.714286 0 82.285714 36.571429 82.285714 82.285714s-36.571429 82.285714-82.285714 82.285715-82.285714-36.571429-82.285715-82.285715 36.571429-82.285714 82.285715-82.285714zM265.142857 484.571429h-109.714286c-10.971429 0-18.285714 7.314286-18.285714 18.285714s7.314286 18.285714 18.285714 18.285714h109.714286c10.971429 0 18.285714-7.314286 18.285714-18.285714s-7.314286-18.285714-18.285714-18.285714z m0-256h-109.714286c-10.971429 0-18.285714 7.314286-18.285714 18.285714s7.314286 18.285714 18.285714 18.285714h109.714286c10.971429 0 18.285714-7.314286 18.285714-18.285714s-7.314286-18.285714-18.285714-18.285714z m0 128h-91.428571c-10.971429 0-18.285714 7.314286-18.285715 18.285714s7.314286 18.285714 18.285715 18.285714h91.428571c10.971429 0 18.285714-7.314286 18.285714-18.285714s-7.314286-18.285714-18.285714-18.285714z"  horiz-adv-x="1024" />

    
    <glyph glyph-name="section_ic_more" unicode="&#58998;" d="M384 58.181818c-6.981818 0-11.636364 2.327273-16.290909 6.981818-9.309091 9.309091-9.309091 23.272727 0 32.581819l279.272727 286.254545-279.272727 286.254545c-9.309091 9.309091-9.309091 23.272727 0 32.581819 9.309091 9.309091 23.272727 9.309091 32.581818 0L712.145455 384 400.290909 65.163636c-4.654545-4.654545-9.309091-6.981818-16.290909-6.981818z"  horiz-adv-x="1024" />

    
    <glyph glyph-name="nav_ic_back" unicode="&#58999;" d="M691.2-74.472727c-9.309091 0-18.618182 2.327273-25.6 9.309091L223.418182 384l442.181818 446.836364c13.963636 13.963636 34.909091 13.963636 48.872727 0 13.963636-13.963636 13.963636-34.909091 0-48.872728L321.163636 384l393.309091-397.963636c13.963636-13.963636 13.963636-34.909091 0-48.872728-4.654545-6.981818-13.963636-11.636364-23.272727-11.636363z"  horiz-adv-x="1024" />

    
    <glyph glyph-name="port_ic_vip" unicode="&#59000;" d="M512 384m-512 0a512 512 0 1 1 1024 0 512 512 0 1 1-1024 0ZM788.48 471.04c-10.24 15.36-30.72 23.04-48.64 12.8l-92.16-56.32-107.52 94.72 71.68 71.68L512 691.2l-99.84-97.28 74.24-74.24-102.4-92.16-102.4 56.32c-7.68 2.56-12.8 5.12-20.48 5.12-20.48-2.56-33.28-20.48-30.72-38.4l35.84-291.84c2.56-17.92 17.92-30.72 35.84-30.72h422.4c17.92 0 33.28 12.8 35.84 30.72L793.6 448c0 7.68 0 15.36-5.12 23.04zM640 230.4H384v51.2h256v-51.2z"  horiz-adv-x="1024" />

    
    <glyph glyph-name="filter_ic_unfold" unicode="&#59001;" d="M76.8 588.8h870.4L512 179.2 76.8 588.8z"  horiz-adv-x="1024" />

    
    <glyph glyph-name="filter_ic_fold" unicode="&#59002;" d="M947.2 179.2h-870.4L512 588.8l435.2-409.6z"  horiz-adv-x="1024" />

    
    <glyph glyph-name="port_ic_wallet" unicode="&#59003;" d="M747.2 604.8h-76.8c-1.6 6.4-6.4 11.2-12.8 14.4l-200 107.2c-41.6 22.4-92.8 6.4-113.6-35.2v-1.6l-44.8-84.8h-22.4c-46.4 0-84.8-38.4-84.8-86.4v-400c0-46.4 38.4-86.4 84.8-86.4h470.4c46.4 0 84.8 38.4 84.8 86.4v400c0 46.4-38.4 86.4-84.8 86.4z m35.2-342.4H611.2c-19.2 0-33.6 16-33.6 33.6v35.2c0 19.2 14.4 33.6 33.6 33.6h171.2v-102.4zM387.2 667.2c9.6 17.6 30.4 24 48 16l147.2-78.4H355.2l32 62.4z m360-585.6H276.8c-19.2 0-35.2 16-35.2 36.8v400c0 19.2 16 36.8 35.2 36.8h470.4c19.2 0 36.8-16 35.2-36.8v-104H611.2c-46.4 0-83.2-38.4-81.6-83.2v-35.2c0-46.4 36.8-83.2 81.6-83.2h171.2v-94.4c1.6-20.8-14.4-36.8-35.2-36.8z m0 0V32H276.8c-46.4 0-84.8 38.4-84.8 86.4v400c0 46.4 38.4 86.4 84.8 86.4h22.4l1.6 3.2h54.4l-1.6-3.2h227.2L576 608h94.4c0-1.6 1.6-1.6 1.6-3.2h76.8c46.4 0 84.8-38.4 84.8-86.4v-400c0-46.4-38.4-84.8-84.8-86.4l-1.6 49.6zM784 448l-1.6 70.4c0 19.2-16 36.8-35.2 36.8H276.8c-19.2 0-36.8-16-35.2-36.8v-400c0-19.2 16-36.8 35.2-36.8h470.4c19.2 0 36.8 16 35.2 36.8V176h1.6V448zM747.2 32H276.8c-46.4 0-84.8 38.4-84.8 86.4v400c0 46.4 38.4 86.4 84.8 86.4h24l1.6 3.2h54.4l-1.6-3.2h227.2L576 608h94.4c0-1.6 1.6-1.6 1.6-3.2h76.8c46.4 0 84.8-38.4 84.8-86.4v-400c-1.6-48-40-86.4-86.4-86.4zM784 448l-1.6 70.4c0 19.2-16 36.8-35.2 36.8H276.8c-19.2 0-36.8-16-35.2-36.8v-400c0-19.2 16-36.8 35.2-36.8h470.4c19.2 0 36.8 16 35.2 36.8V176h1.6V448z"  horiz-adv-x="1024" />

    
    <glyph glyph-name="info_ic_edit" unicode="&#59004;" d="M756.363636 9.309091H260.654545c-74.472727 0-134.981818 60.509091-134.981818 134.981818V621.381818C123.345455 695.854545 186.181818 756.363636 260.654545 756.363636h249.018182c13.963636 0 25.6-11.636364 25.6-25.6 0-13.963636-11.636364-27.927273-27.927272-27.927272H260.654545c-44.218182 0-81.454545-37.236364-81.454545-81.454546v-477.090909c0-44.218182 37.236364-81.454545 81.454545-81.454545h495.709091c44.218182 0 81.454545 37.236364 81.454546 81.454545V381.672727c0 13.963636 11.636364 27.927273 27.927273 27.927273 13.963636 0 27.927273-11.636364 27.927272-27.927273v-237.381818c-2.327273-74.472727-62.836364-134.981818-137.309091-134.981818z m0 0M451.490909 300.218182c-6.981818 0-13.963636 2.327273-18.618182 6.981818-11.636364 11.636364-11.636364 27.927273 0 39.563636L842.472727 749.381818c11.636364 11.636364 27.927273 11.636364 39.563637 0s11.636364-27.927273 0-39.563636L472.436364 309.527273c-6.981818-6.981818-13.963636-9.309091-20.945455-9.309091z m0 0"  horiz-adv-x="1024" />

    
    <glyph glyph-name="info_ic_dimission" unicode="&#59005;" d="M532.945455 349.090909c-123.345455 0-223.418182 100.072727-225.745455 223.418182 0 123.345455 100.072727 225.745455 225.745455 225.745454 123.345455 0 223.418182-100.072727 223.418181-225.745454 0-123.345455-100.072727-223.418182-223.418181-223.418182z m0 48.872727c97.745455 0 174.545455 79.127273 174.545454 174.545455 0 97.745455-79.127273 174.545455-174.545454 174.545454-97.745455 0-174.545455-79.127273-174.545455-174.545454s76.8-174.545455 174.545455-174.545455z m0 0M535.272727 397.963636c13.963636 0 25.6-11.636364 25.6-25.6 0-13.963636-11.636364-25.6-25.6-25.6-179.2 0-323.490909-144.290909-323.490909-323.490909v-48.872727c0-13.963636-11.636364-25.6-25.6-25.6-13.963636 0-25.6 11.636364-25.6 25.6v48.872727c0 207.127273 167.563636 374.690909 374.690909 374.690909zM835.490909 58.181818H539.927273c-11.636364 0-20.945455 9.309091-20.945455 23.272727 0 11.636364 9.309091 23.272727 20.945455 23.272728H837.818182c11.636364 0 23.272727-9.309091 23.272727-23.272728-2.327273-13.963636-11.636364-23.272727-25.6-23.272727z m0 0"  horiz-adv-x="1024" />

    
    <glyph glyph-name="contact_ic_manage" unicode="&#59006;" d="M512 235.054545c-76.8 0-139.636364 62.836364-139.636364 139.636364s62.836364 139.636364 139.636364 139.636364 139.636364-62.836364 139.636364-139.636364-62.836364-139.636364-139.636364-139.636364z m0 239.709091c-55.854545 0-100.072727-44.218182-100.072727-100.072727s44.218182-100.072727 100.072727-100.072727 100.072727 44.218182 100.072727 100.072727-44.218182 100.072727-100.072727 100.072727z m0 0M626.036364 9.309091c-2.327273 0-6.981818 0-9.309091 2.327273-4.654545 2.327273-6.981818 6.981818-9.309091 11.636363-13.963636 41.890909-51.2 72.145455-95.418182 72.145455-44.218182 0-83.781818-27.927273-95.418182-72.145455-2.327273-4.654545-4.654545-9.309091-9.309091-11.636363-4.654545-2.327273-9.309091-2.327273-13.963636 0-48.872727 16.290909-95.418182 41.890909-134.981818 76.8-4.654545 2.327273-6.981818 9.309091-6.981818 13.963636 0 4.654545 2.327273 9.309091 4.654545 13.963636 30.254545 32.581818 34.909091 81.454545 13.963636 118.690909-18.618182 30.254545-51.2 51.2-88.436363 51.2-6.981818 0-16.290909 0-23.272728-2.327272-4.654545 0-9.309091 0-13.963636 2.327272-4.654545 0-6.981818 4.654545-9.309091 11.636364-4.654545 25.6-6.981818 51.2-6.981818 76.8 0 25.6 2.327273 51.2 6.981818 76.8 0 4.654545 4.654545 9.309091 9.309091 11.636364 4.654545 2.327273 9.309091 4.654545 13.963636 2.327272 6.981818-2.327273 16.290909-2.327273 23.272728-2.327272 34.909091 0 69.818182 18.618182 88.436363 51.2 23.272727 39.563636 16.290909 86.109091-13.963636 118.690909-4.654545 4.654545-4.654545 9.309091-4.654545 13.963636 0 4.654545 2.327273 9.309091 6.981818 13.963637 39.563636 34.909091 83.781818 60.509091 134.981818 76.8 4.654545 2.327273 9.309091 2.327273 13.963636-2.327273 4.654545-2.327273 6.981818-6.981818 9.309091-11.636364 13.963636-41.890909 51.2-72.145455 95.418182-72.145454 44.218182 0 83.781818 27.927273 95.418182 72.145454 2.327273 4.654545 4.654545 9.309091 9.309091 11.636364 4.654545 2.327273 9.309091 2.327273 13.963636 2.327273 48.872727-16.290909 95.418182-41.890909 134.981818-76.8 4.654545-2.327273 6.981818-9.309091 6.981818-13.963637 0-4.654545-2.327273-9.309091-4.654545-13.963636-30.254545-32.581818-34.909091-81.454545-13.963636-118.690909 18.618182-30.254545 51.2-51.2 88.436363-51.2 6.981818 0 16.290909 0 23.272728 2.327272 4.654545 2.327273 9.309091 0 13.963636-2.327272 4.654545-2.327273 6.981818-6.981818 9.309091-11.636364 4.654545-25.6 6.981818-51.2 6.981818-76.8 0-25.6-2.327273-51.2-6.981818-76.8 0-4.654545-4.654545-9.309091-9.309091-11.636364-4.654545-2.327273-9.309091-4.654545-13.963636-2.327272-6.981818 2.327273-13.963636 2.327273-23.272728 2.327272-34.909091 0-69.818182-18.618182-88.436363-51.2-23.272727-39.563636-16.290909-86.109091 13.963636-118.690909 4.654545-4.654545 4.654545-9.309091 4.654545-13.963636 0-4.654545-2.327273-9.309091-6.981818-13.963636-39.563636-34.909091-83.781818-60.509091-134.981818-76.8 0-2.327273-2.327273-2.327273-4.654545-2.327273zM295.563636 104.727273c27.927273-20.945455 58.181818-39.563636 90.763637-51.2 23.272727 48.872727 72.145455 79.127273 125.672727 79.127272 55.854545 0 102.4-30.254545 125.672727-79.127272 32.581818 11.636364 62.836364 30.254545 90.763637 51.2-30.254545 44.218182-32.581818 102.4-6.981819 148.945454 25.6 46.545455 79.127273 74.472727 132.654546 69.818182 2.327273 16.290909 4.654545 34.909091 4.654545 51.2 0 16.290909-2.327273 34.909091-4.654545 51.2-53.527273-4.654545-104.727273 23.272727-132.654546 69.818182-27.927273 46.545455-25.6 104.727273 6.981819 148.945454-27.927273 20.945455-58.181818 39.563636-90.763637 51.2-23.272727-48.872727-72.145455-79.127273-125.672727-79.127272-55.854545 0-102.4 30.254545-125.672727 79.127272-32.581818-11.636364-62.836364-30.254545-90.763637-51.2 30.254545-44.218182 32.581818-102.4 6.981819-148.945454-25.6-46.545455-79.127273-74.472727-132.654546-69.818182-4.654545-34.909091-4.654545-69.818182 0-104.727273 53.527273 4.654545 104.727273-23.272727 132.654546-69.818181 27.927273-44.218182 23.272727-102.4-6.981819-146.618182z m0 0"  horiz-adv-x="1024" />

    
    <glyph glyph-name="contact_ic_add" unicode="&#59007;" d="M532.945455 349.090909c-123.345455 0-223.418182 100.072727-225.745455 223.418182 0 123.345455 100.072727 225.745455 225.745455 225.745454 123.345455 0 223.418182-100.072727 223.418181-225.745454 0-123.345455-100.072727-223.418182-223.418181-223.418182z m0 48.872727c97.745455 0 174.545455 79.127273 174.545454 174.545455 0 97.745455-79.127273 174.545455-174.545454 174.545454-97.745455 0-174.545455-79.127273-174.545455-174.545454s76.8-174.545455 174.545455-174.545455z m0 0M535.272727 397.963636c13.963636 0 25.6-11.636364 25.6-25.6 0-13.963636-11.636364-25.6-25.6-25.6-179.2 0-323.490909-144.290909-323.490909-323.490909v-48.872727c0-13.963636-11.636364-25.6-25.6-25.6-13.963636 0-25.6 11.636364-25.6 25.6v48.872727c0 207.127273 167.563636 374.690909 374.690909 374.690909z m300.218182-300.218181H539.927273c-11.636364 0-20.945455 9.309091-20.945455 23.272727 0 11.636364 9.309091 23.272727 20.945455 23.272727H837.818182c11.636364 0 23.272727-9.309091 23.272727-23.272727-2.327273-13.963636-11.636364-23.272727-25.6-23.272727z m-169.890909-128V267.636364c0 11.636364 9.309091 20.945455 23.272727 20.945454 11.636364 0 23.272727-9.309091 23.272728-20.945454v-297.890909c0-11.636364-9.309091-23.272727-23.272728-23.272728-11.636364 2.327273-23.272727 11.636364-23.272727 23.272728z m169.890909 88.436363"  horiz-adv-x="1024" />

    
    <glyph glyph-name="add_ic_tip" unicode="&#59008;" d="M512 896C230.4 896 0 665.6 0 384s230.4-512 512-512 512 230.4 512 512S796.8 896 512 896z m0-956.8C265.6-60.8 67.2 137.6 67.2 384S265.6 828.8 512 828.8 956.8 630.4 956.8 384c0-243.2-198.4-444.8-444.8-444.8z m169.6 528c-16-25.6-35.2-48-54.4-67.2l-57.6-57.6c-9.6-12.8-19.2-25.6-19.2-41.6-3.2-9.6-3.2-19.2-6.4-35.2v-12.8c0-9.6-6.4-16-16-16H483.2c-9.6 0-16 6.4-16 16v16c0 16 3.2 28.8 6.4 44.8 3.2 19.2 12.8 35.2 22.4 48 16 22.4 35.2 41.6 54.4 60.8 19.2 19.2 35.2 38.4 51.2 57.6 9.6 16 12.8 35.2 9.6 54.4 0 25.6-9.6 48-28.8 64-19.2 19.2-48 28.8-76.8 25.6-67.2 0-105.6-38.4-112-115.2 0-9.6-6.4-16-16-16H332.8c-9.6 0-16 6.4-16 16V512c3.2 25.6 6.4 51.2 12.8 73.6 9.6 22.4 22.4 41.6 41.6 57.6 19.2 16 38.4 28.8 60.8 38.4 22.4 9.6 48 12.8 73.6 12.8 48 3.2 92.8-12.8 131.2-44.8 35.2-28.8 51.2-73.6 51.2-118.4 9.6-25.6 3.2-44.8-6.4-64z m-220.8-342.4c0-25.6 22.4-48 48-48s48 22.4 48 48-22.4 48-48 48-48-22.4-48-48z"  horiz-adv-x="1024" />

    
    <glyph glyph-name="add_ic_next" unicode="&#59009;" d="M588.8 546.909091h-144.290909c-27.927273 0-48.872727 20.945455-48.872727 48.872727V737.745455c0 27.927273 20.945455 48.872727 48.872727 48.872727h144.290909c27.927273 0 48.872727-20.945455 48.872727-48.872727V593.454545c-2.327273-25.6-25.6-46.545455-48.872727-46.545454z m-279.272727-579.490909H167.563636c-27.927273 0-48.872727 20.945455-48.872727 48.872727v144.290909c0 27.927273 20.945455 48.872727 48.872727 48.872727h144.290909c27.927273 0 48.872727-20.945455 48.872728-48.872727v-144.290909c-2.327273-30.254545-27.927273-48.872727-51.2-48.872727z m553.890909 0h-144.290909c-27.927273 0-48.872727 20.945455-48.872728 48.872727v144.290909c0 27.927273 20.945455 48.872727 48.872728 48.872727h144.290909c27.927273 0 48.872727-20.945455 48.872727-48.872727v-144.290909c-2.327273-30.254545-20.945455-48.872727-48.872727-48.872727z m0 0M484.072727 649.309091h60.509091v-274.618182h-60.509091V649.309091zM207.127273 402.618182h60.509091V128H207.127273V402.618182z m551.563636 0h60.509091V128h-60.509091V402.618182z m0 0M218.763636 402.618182H814.545455v-51.2H218.763636z"  horiz-adv-x="1024" />

    
    <glyph glyph-name="contact_ic_section" unicode="&#59010;" d="M737.745455 726.109091H265.309091c-62.836364 0-111.709091-53.527273-111.709091-121.018182v-414.254545c0-67.490909 51.2-121.018182 111.709091-121.018182h295.563636c11.636364 0 18.618182 9.309091 18.618182 20.945454s-9.309091 20.945455-18.618182 20.945455H265.309091c-41.890909 0-74.472727 34.909091-74.472727 79.127273V605.090909c0 44.218182 32.581818 79.127273 74.472727 79.127273h472.436364c41.890909 0 74.472727-34.909091 74.472727-79.127273V407.272727c0-11.636364 9.309091-20.945455 18.618182-20.945454 11.636364 0 18.618182 9.309091 18.618181 20.945454v197.818182c0 67.490909-48.872727 121.018182-111.70909 121.018182zM609.745455 518.981818h144.290909c11.636364 0 20.945455 9.309091 20.945454 20.945455s-9.309091 20.945455-20.945454 20.945454h-144.290909c-11.636364 0-20.945455-9.309091-20.945455-20.945454 2.327273-11.636364 9.309091-20.945455 20.945455-20.945455zM609.745455 421.236364h144.290909c11.636364 0 20.945455 9.309091 20.945454 20.945454s-9.309091 20.945455-20.945454 20.945455h-144.290909c-11.636364 0-20.945455-9.309091-20.945455-20.945455 2.327273-11.636364 9.309091-20.945455 20.945455-20.945454zM516.654545 388.654545l-4.654545-4.654545c-23.272727-20.945455-46.545455-41.890909-46.545455-67.490909v-9.309091h32.581819V314.181818c0 11.636364 18.618182 30.254545 34.909091 44.218182 4.654545 4.654545 11.636364 9.309091 16.290909 16.290909 16.290909 16.290909 23.272727 37.236364 18.618181 53.527273-2.327273 6.981818-6.981818 13.963636-11.636363 18.618182 2.327273 11.636364 4.654545 25.6 4.654545 39.563636 0 16.290909 0 32.581818-2.327272 48.872727-4.654545 18.618182-9.309091 34.909091-20.945455 48.872728-18.618182 25.6-51.2 39.563636-90.763636 39.563636-30.254545 0-53.527273-6.981818-74.472728-20.945455-16.290909-11.636364-30.254545-27.927273-37.236363-48.872727-11.636364-27.927273-11.636364-55.854545-11.636364-76.8 0-9.309091 2.327273-18.618182 2.327273-27.927273-6.981818-6.981818-11.636364-13.963636-13.963637-23.272727-2.327273-16.290909 4.654545-34.909091 20.945455-51.2 6.981818-6.981818 13.963636-13.963636 20.945455-18.618182 13.963636-11.636364 27.927273-27.927273 27.927272-32.581818 0 0 0-2.327273-4.654545-4.654545-13.963636-13.963636-74.472727-34.909091-121.018182-46.545455-6.981818-2.327273-18.618182-6.981818-30.254545-13.963636-13.963636-9.309091-18.618182-20.945455-18.618182-34.909091v-32.581818c0-9.309091 6.981818-16.290909 16.290909-16.290909H535.272727v32.581818H249.018182V221.090909c0 4.654545 11.636364 13.963636 23.272727 16.290909 20.945455 4.654545 44.218182 11.636364 62.836364 18.618182 37.236364 11.636364 62.836364 25.6 74.472727 37.236364 9.309091 9.309091 13.963636 18.618182 13.963636 30.254545 0 20.945455-16.290909 34.909091-39.563636 58.181818l-2.327273 2.327273c-4.654545 4.654545-11.636364 9.309091-16.290909 16.290909-16.290909 9.309091-16.290909 16.290909-16.290909 18.618182 0 2.327273 4.654545 6.981818 6.981818 6.981818 4.654545 2.327273 9.309091 6.981818 9.309091 11.636364s0 6.981818-2.327273 11.636363-4.654545 20.945455-4.654545 39.563637c0 18.618182 2.327273 44.218182 16.290909 65.163636 13.963636 20.945455 39.563636 32.581818 72.145455 32.581818 30.254545 0 51.2-9.309091 62.836363-25.6 30.254545-39.563636 11.636364-111.709091 9.309091-118.690909-2.327273-4.654545 0-9.309091 2.327273-13.963636 2.327273-4.654545 6.981818-6.981818 11.636364-6.981818 0 0 2.327273 0 2.327272-2.327273 2.327273-4.654545-2.327273-11.636364-9.309091-20.945455 0-2.327273-4.654545-6.981818-9.309091-9.309091zM730.763636 335.127273h-37.236363v-97.745455h-97.745455v-37.236363h97.745455v-97.745455h37.236363v97.745455h97.745455v37.236363h-97.745455z"  horiz-adv-x="1024" />

    
    <glyph glyph-name="contact_ic_seeting" unicode="&#59011;" d="M269.963636 588.8h104.727273v-53.527273h-104.727273v53.527273z m155.927273 0h104.727273v-53.527273h-104.727273v53.527273z m-155.927273-130.327273h104.727273v-53.527272h-104.727273v53.527272z m155.927273 0h104.727273v-53.527272h-104.727273v53.527272z m-155.927273-128h104.727273v-53.527272h-104.727273v53.527272z m155.927273 0h104.727273v-53.527272h-104.727273v53.527272z m258.327273 139.636364h51.2v-76.8h-51.2v76.8z m0 0M833.163636 374.690909v190.836364h-207.127272V723.781818H172.218182v-621.381818H146.618182v-37.236364h442.181818c-9.309091 11.636364-16.290909 23.272727-20.945455 37.236364H209.454545V686.545455h377.018182v-386.327273c11.636364 16.290909 23.272727 30.254545 39.563637 41.890909v188.509091h169.890909v-144.290909c11.636364-2.327273 25.6-6.981818 37.236363-11.636364zM884.363636 179.2c-6.981818 4.654545-6.981818 18.618182-6.981818 20.945455-2.327273 4.654545 0 16.290909 6.981818 23.272727 6.981818 9.309091 18.618182 16.290909 18.618182 16.290909 2.327273 13.963636-2.327273 30.254545-18.618182 39.563636-9.309091 6.981818-20.945455-6.981818-37.236363-9.309091-9.309091 0-16.290909 9.309091-18.618182 9.309091-30.254545 20.945455-9.309091 46.545455-11.636364 51.2-2.327273 4.654545-20.945455 18.618182-39.563636 13.963637-18.618182-4.654545-11.636364-25.6-25.6-34.909091-4.654545-2.327273-16.290909-2.327273-23.272727-2.327273-25.6 2.327273-27.927273 34.909091-46.545455 30.254545-16.290909-4.654545-30.254545-18.618182-32.581818-27.927272 0-11.636364 11.636364-18.618182 11.636364-30.254546 0-6.981818-6.981818-13.963636-9.309091-18.618182-2.327273-4.654545-11.636364-9.309091-23.272728-11.636363-9.309091 0-20.945455 4.654545-25.6 4.654545-4.654545 0-13.963636-9.309091-13.963636-18.618182-2.327273-9.309091-4.654545-20.945455 2.327273-30.254545 6.981818-11.636364 16.290909-4.654545 27.927272-16.290909 6.981818-6.981818 4.654545-13.963636 6.981819-18.618182 0-6.981818 0-20.945455-6.981819-27.927273-4.654545-6.981818-16.290909-9.309091-18.618181-13.963636-4.654545-18.618182 6.981818-34.909091 13.963636-41.890909 11.636364-9.309091 27.927273 6.981818 41.890909 6.981818 6.981818 0 13.963636-6.981818 18.618182-11.636364 4.654545-6.981818 9.309091-13.963636 9.309091-23.272727 0-6.981818-4.654545-18.618182-2.327273-23.272727 4.654545-11.636364 23.272727-16.290909 37.236364-16.290909 16.290909 0 18.618182 23.272727 27.927272 34.909091 6.981818 6.981818 16.290909 6.981818 18.618182 6.981818 4.654545 0 16.290909 0 25.6-6.981818 4.654545-4.654545 6.981818-13.963636 11.636364-16.290909 9.309091-6.981818 18.618182-6.981818 20.945454-4.654546 9.309091 4.654545 18.618182 9.309091 25.6 20.945455 4.654545 9.309091-9.309091 20.945455-9.30909 34.909091 0 11.636364 11.636364 23.272727 13.963636 25.6 2.327273 2.327273 13.963636 6.981818 23.272727 6.981818 11.636364 0 20.945455-4.654545 23.272727-2.327273 6.981818 2.327273 6.981818 6.981818 11.636364 16.290909 2.327273 6.981818 4.654545 13.963636 4.654546 20.945455-2.327273 11.636364-20.945455 16.290909-32.581819 23.272727z m-132.654545-93.090909c-53.527273 0-97.745455 44.218182-97.745455 97.745454 0 53.527273 44.218182 97.745455 97.745455 97.745455 53.527273 0 97.745455-44.218182 97.745454-97.745455 0-53.527273-44.218182-97.745455-97.745454-97.745454z m0 23.272727"  horiz-adv-x="1024" />

    
    <glyph glyph-name="port_ic_vip-copy" unicode="&#59012;" d="M512 384m-512 0a512 512 0 1 1 1024 0 512 512 0 1 1-1024 0ZM788.48 471.04c-10.24 15.36-30.72 23.04-48.64 12.8l-92.16-56.32-107.52 94.72 71.68 71.68L512 691.2l-99.84-97.28 74.24-74.24-102.4-92.16-102.4 56.32c-7.68 2.56-12.8 5.12-20.48 5.12-20.48-2.56-33.28-20.48-30.72-38.4l35.84-291.84c2.56-17.92 17.92-30.72 35.84-30.72h422.4c17.92 0 33.28 12.8 35.84 30.72L793.6 448c0 7.68 0 15.36-5.12 23.04zM640 230.39999999999998H384v51.2h256v-51.2z"  horiz-adv-x="1024" />

    
    <glyph glyph-name="-s-me_icon_lpkx" unicode="&#59013;" d="M827.88043467 638.78260888H709.60869599v-57.07173955h118.07608624a18.70434756 18.70434756 0 0 0 17.04130488-19.99565156v-471.97173955a18.70434756 18.70434756 0 0 0-17.04130489-19.99565244H307.58260888a14.75217422 14.75217422 0 0 0-3.20869599 0.35217422 30.52173955 30.52173955 0 0 1-34.63043466-19.44782578 25.43478223 25.43478223 0 0 1-1.1739129-16.82608711 21.26739112 21.26739112 0 0 1 9.29347822-12.83478311 57.65869599 57.65869599 0 0 1 29.71956533-8.31521689H827.78260888a72.17608711 72.17608711 0 0 1 65.73913067 77.08695644V561.7347822199999A72.13695645 72.13695645 0 0 1 827.88043467 638.78260888zM526.88913067 273.85217422000005a15.45652177 15.45652177 0 0 1 11.52391289-5.14565245h0.27391289a21.13043467 21.13043467 0 0 1 15.80869599 8.17826045l0.11739112 0.13695733a24.88695645 24.88695645 0 0 1 0.82173867 31.57826045l-45.48912979 48.91304355a83.54347823 83.54347823 0 0 1 8.66739112 2.77826045h0.17608711a73.97608711 73.97608711 0 0 1 40.36304355 80.58913066 46.52608711 46.52608711 0 0 1-63.58695644 38.60217422 83.46521778 83.46521778 0 0 1-31.77391377-30.77608711l-44.68695645 228.91304356-38.05434756-15.37826133 41.26304356-211.30434756a34.72826045 34.72826045 0 0 1-15.65217422 4.24565244 68.14565244 68.14565244 0 0 1-60.0652169-63.43043466 63.60652177 63.60652177 0 0 1 10.76086933-45.64565245 42.16304356 42.16304356 0 0 1 34.41521778-17.74565244h0.13695644a79.21956533 79.21956533 0 0 1 13.69565157 1.38913067l-34.55217334-55.09565245a27.07826045 27.07826045 0 0 1-4.16739199-17.06086933 19.44782578 19.44782578 0 0 1 7.04347822-13.69565244 15.49565244 15.49565244 0 0 1 9.41087022-3.30652178h0.58695644a22.20652177 22.20652177 0 0 1 17.21739111 10.44782666l45.99782579 73.291304L496.34782578 71.39130399999999l38.07391377 15.37826133-44.19782666 226.46739111z m-22.83260889 163.54565156a11.48478223 11.48478223 0 0 0 4.2260871 0.84130489 14.16521777 14.16521777 0 0 0 12.89347823-12.50217423 20.79782578 20.79782578 0 0 0-10.52608711-22.91086933 80.55 80.55 0 0 0-31.5-4.36304355 123.96521777 123.96521777 0 0 0 24.88695644 38.93478222z m-75.56086934-55.66304356a86.08695645 86.08695645 0 0 0-31.30434843-8.37391289 14.63478222 14.63478222 0 0 0-11.89565157 18.31304356 19.38913066 19.38913066 0 0 0 16.08260801 18.43043466 78.26086933 78.26086933 0 0 0 27.11739199-28.36956533zM775.05434756 231.51304356000003L713.52173955 719.48913066a99.11739112 99.11739112 0 0 1-26.68695732 58.69565157 50.47826045 50.47826045 0 0 1-48.6 15.16304355L184.10652177 681.23913067a66.77608711 66.77608711 0 0 1-41.92826132-37.42826133 119.93478222 119.93478222 0 0 1-10.78043467-67.96956534l61.45434844-487.95652178a99.21521778 99.21521778 0 0 1 26.82391289-58.69565156 53.29565244 53.29565244 0 0 1 36.95869512-16.33695644h0.80217422a44.00217422 44.00217422 0 0 1 10.68260888 1.31086933l454.12826045 112.108696a66.79565244 66.79565244 0 0 1 41.86956534 37.35 119.34782578 119.34782578 0 0 1 10.93695644 67.891304z m-538.61086933-132.84782578L174.98913066 586.641304a38.34782578 38.34782578 0 0 0 3.46304356 21.73695644 21.52173955 21.52173955 0 0 0 13.40217334 11.99347911l16.43478311 4.05 437.67391289 108.05869511a16.12173955 16.12173955 0 0 0 15.4760871-4.69565243 31.77391289 31.77391289 0 0 0 8.60869512-18.91956445l61.45434844-487.97608711a37.44782578 37.44782578 0 0 0-3.34565244-21.65869601 21.52173955 21.52173955 0 0 0-13.51956533-12.07173867l-454.12826046-112.10869599a15.98478222 15.98478222 0 0 0-15.47608711 4.69565244 31.83260888 31.83260888 0 0 0-8.58913065 18.91956534z"  horiz-adv-x="1024" />

    
    <glyph glyph-name="-s-me_icon_lpk" unicode="&#59015;" d="M815.42307529 436.74336823l-18.5478591 47.0441161a710.50105314 710.50105314 0 0 0-160.18606004-41.26055665 125.90624285 125.90624285 0 0 1-249.55301963 0 720.80354548 720.80354548 0 0 0-160.18605932 41.24369519L208.4022174 436.74336823a767.6115989 767.6115989 0 0 1 182.10625716-45.66145854 125.85565773 125.85565773 0 0 1 242.80834357 0A767.20691793 767.20691793 0 0 1 815.42307529 436.74336823z m-303.51042859-87.68079128a75.8776075 75.8776075 0 1 0 75.67526703 75.8776075 75.8776075 75.8776075 0 0 0-75.67526703-75.8776075zM756.40715858 13.211425780000013h-488.98902447A76.38345799 76.38345799 0 0 0 191.5405266 89.91525596999998V678.03415891A76.38345799 76.38345799 0 0 0 267.41813411 754.75485057h488.98902447a76.38345799 76.38345799 0 0 0 75.87760749-76.72069165v-588.11890295a76.38345799 76.38345799 0 0 0-75.87760749-76.70383019zM267.41813411 703.61334329A25.46115265 25.46115265 0 0 1 242.12559828 678.03415891v-588.11890294a25.46115265 25.46115265 0 0 1 25.29253583-25.56232291h488.98902447a25.46115265 25.46115265 0 0 1 25.29253582 25.56232291V678.03415891a25.46115265 25.46115265 0 0 1-25.29253582 25.57918438h-488.98902447z"  horiz-adv-x="1024" />

    
    <glyph glyph-name="port_ic_redx" unicode="&#59014;" d="M660.56847534 635.7410280199999h-297.13695069A61.94480062 61.94480062 0 0 1 301.52799285 573.83749672v-379.67499343A61.94480062 61.94480062 0 0 1 363.43152466 132.25897197999996h297.13695069a61.94480062 61.94480062 0 0 1 61.9035318 61.9035313v379.67499343A61.94480062 61.94480062 0 0 1 660.56847534 635.7410280199999z m-297.13695069-57.77662951h297.13695069a4.12690229 4.12690229 0 0 0 4.12690229-4.12690179v-58.18931962a367.19524122 367.19524122 0 0 0-305.39075527 1.9809128V573.83749672a4.12690229 4.12690229 0 0 0 4.12690229 4.12690179z m297.13695069-387.92879702h-297.13695069a4.12690229 4.12690229 0 0 0-4.12690228 4.12690179V454.98271605a422.00875494 422.00875494 0 0 1 305.39075527-1.56822272V194.16250328a4.12690229 4.12690229 0 0 0-4.1269023-4.12690179zM573.90353131 313.84266412a57.77662952 57.77662952 0 1 0-57.77662902 57.77662951 57.77662952 57.77662952 0 0 0 57.77662902-57.7766295z"  horiz-adv-x="1024" />

    


  </font>
</defs>
</svg>
